<svg width="92" height="36" viewBox="0 0 92 36" fill="none" xmlns="http://www.w3.org/2000/svg">
<path d="M51.596 0.759453V8.71083H70.694V12.2683L62.3185 22.8584H70.4426V27.9631H53.6898V24.3219L62.067 13.7351L51.596 13.8173V27.9631H45.6077L45.482 27.8374V13.8173H41.7971L32.4157 36H26.1324L30.4828 26.5817L23.202 8.71083H29.7351L33.5457 20.2632L37.482 8.71083H45.482V0.759453H51.596Z" fill="#6D275D"/>
<path d="M0 27.9632L11.0142 0.0889355L16.6303 8.39233e-05L27.6412 27.9632H21.15L19.1433 22.8517L8.30511 22.8685L6.40905 27.9632H0ZM10.2179 17.752H17.4216L13.7787 7.95817L10.2179 17.752Z" fill="#6D275D"/>
<path d="M85.435 10.218V8.71084H91.4652V27.8374L91.3394 27.9631H85.5607L85.435 27.8374V26.456C82.6688 28.8449 78.3017 28.8818 75.2891 26.9271C69.3713 23.0864 69.4886 13.0696 75.6093 9.48033C78.6035 7.72341 82.8214 7.80724 85.435 10.218ZM81.316 13.7553C76.0821 13.9028 75.6563 21.7536 80.4895 22.736C86.984 24.0553 87.5825 13.5792 81.316 13.7553Z" fill="#6D275D"/>
</svg>
